<svg xmlns="http://www.w3.org/2000/svg" width="128" height="128" viewBox="0 0 128 128">
  <title>MONITOR</title>
  <g>
    <path d="M116.694,11.386H11.306a5,5,0,0,0-5,5V85.462a5,5,0,0,0,5,5H51.98v17.386H36.409l-4.942,8.766H96.533l-4.942-8.766H76.02V90.462h40.674a5,5,0,0,0,5-5V16.386A5,5,0,0,0,116.694,11.386Z" fill="#42db8f"/>
    <rect x="15.072" y="20.152" width="97.855" height="61.544" fill="#e5e5e5"/>
    <path d="M82.49,32.15,56.432,36.32l0,24.636a10.488,10.488,0,0,0-3.711-.655c-3.983,0-7.212,2.04-7.212,4.558s3.229,4.558,7.212,4.558,7.213-2.041,7.213-4.558l0-19.951,19.06-3.049V57.348a10.481,10.481,0,0,0-3.709-.655c-3.984,0-7.213,2.041-7.213,4.558S71.3,65.81,75.281,65.81s7.212-2.041,7.212-4.559C82.493,61.238,82.49,32.15,82.49,32.15Z" fill="#f74a37"/>
  </g>
</svg>
